Coordinates
version=1
nRows=17
nColumns=38
inDegrees=no

Units are S.I. units (second, meters, Newtons, ...)
If the header above contains a line with 'inDegrees', this indicates whether rotational values are in degrees (yes) or radians (no).

endheader
time	pelvis_tilt	pelvis_list	pelvis_rotation	pelvis_tx	pelvis_ty	pelvis_tz	hip_flexion_r	hip_adduction_r	hip_rotation_r	knee_angle_r	ankle_angle_r	subtalar_angle_r	mtp_angle_r	hip_flexion_l	hip_adduction_l	hip_rotation_l	knee_angle_l	ankle_angle_l	subtalar_angle_l	mtp_angle_l	lumbar_extension	lumbar_bending	lumbar_rotation	arm_flex_r	arm_add_r	arm_rot_r	elbow_flex_r	pro_sup_r	wrist_flex_r	wrist_dev_r	arm_flex_l	arm_add_l	arm_rot_l	elbow_flex_l	pro_sup_l	wrist_flex_l	wrist_dev_l
0.63	2.97392	1.35175	-1.301	0.612605	0.063587	0.951144	0.0490146	-0.105836	-0.158897	1.26937	-0.424399	0	0	-0.20263	-0.0257425	-0.372026	0.224826	-0.200475	0	0	-0.336969	0.0449651	-0.160071	-0.245149	-0.251979	-0.188371	0.787484	0.446735	0	0	-0.148663	-0.344888	0.121914	0.742426	1.48814	0	0
0.64	2.9563	1.35277	-1.27903	0.611348	0.0722092	0.951445	0.0746178	-0.103712	-0.160657	1.26574	-0.412751	0	0	-0.212921	-0.029598	-0.367584	0.219337	-0.197012	0	0	-0.335658	0.0508388	-0.163293	-0.245093	-0.253815	-0.184286	0.787988	0.447449	0	0	-0.134055	-0.34581	0.124702	0.74216	1.49342	0	0
0.65	2.94104	1.35287	-1.25937	0.610079	0.080683	0.951697	0.0981929	-0.10192	-0.163288	1.25834	-0.401448	0	0	-0.223744	-0.0333861	-0.363824	0.214879	-0.193869	0	0	-0.335427	0.0565116	-0.167375	-0.243312	-0.254794	-0.182023	0.788161	0.447017	0	0	-0.119983	-0.346272	0.12539	0.743172	1.49617	0	0
0.66	2.92753	1.35316	-1.24089	0.60874	0.0890352	0.951807	0.121216	-0.101518	-0.168019	1.2487	-0.385967	0	0	-0.234227	-0.0365576	-0.35901	0.210351	-0.189778	0	0	-0.335277	0.0620675	-0.172052	-0.241276	-0.255957	-0.179765	0.788764	0.447254	0	0	-0.105599	-0.345955	0.124597	0.744153	1.49809	0	0
0.67	2.91447	1.35357	-1.22357	0.607447	0.0974318	0.951769	0.143624	-0.101774	-0.17362	1.23621	-0.368876	0	0	-0.244911	-0.0393656	-0.355935	0.205594	-0.185667	0	0	-0.334845	0.0673118	-0.176455	-0.239198	-0.257532	-0.176977	0.78971	0.448902	0	0	-0.091817	-0.345163	0.122847	0.74574	1.49922	0	0
0.68	2.90172	1.35431	-1.20686	0.606225	0.105802	0.951592	0.165198	-0.102427	-0.17977	1.22027	-0.350858	0	0	-0.255324	-0.041835	-0.352927	0.200756	-0.181336	0	0	-0.334203	0.0722224	-0.180765	-0.236912	-0.259405	-0.173349	0.790836	0.451806	0	0	-0.0784081	-0.343962	0.120167	0.748279	1.49983	0	0
0.69	2.88888	1.3552	-1.19022	0.605085	0.114134	0.9513	0.185618	-0.103066	-0.185699	1.20114	-0.334862	0	0	-0.265465	-0.0443058	-0.349838	0.196142	-0.176605	0	0	-0.333452	0.0769427	-0.185196	-0.233909	-0.261193	-0.169431	0.79172	0.455032	0	0	-0.0652975	-0.342571	0.116776	0.751428	1.50024	0	0
0.7	2.8761	1.35604	-1.17396	0.60407	0.122477	0.950907	0.204534	-0.103264	-0.191012	1.17874	-0.323669	0	0	-0.275563	-0.0470561	-0.347906	0.191941	-0.172194	0	0	-0.332638	0.0814689	-0.18966	-0.229628	-0.261999	-0.16737	0.791987	0.456326	0	0	-0.0525474	-0.34117	0.113351	0.7551	1.49991	0	0
0.71	2.86315	1.35659	-1.15697	0.603099	0.130821	0.95048	0.22098	-0.102559	-0.196595	1.15294	-0.313269	0	0	-0.285726	-0.0501955	-0.345051	0.187304	-0.167197	0	0	-0.332011	0.0861405	-0.194659	-0.224805	-0.262242	-0.165896	0.792062	0.45704	0	0	-0.0398275	-0.339463	0.10934	0.758706	1.49967	0	0
0.72	2.85211	1.35697	-1.14206	0.60222	0.139224	0.950012	0.235415	-0.101382	-0.201177	1.12432	-0.305174	0	0	-0.296066	-0.0531353	-0.343107	0.182665	-0.163551	0	0	-0.331852	0.0902654	-0.199112	-0.220385	-0.262549	-0.164066	0.792774	0.458051	0	0	-0.0274166	-0.338403	0.10708	0.763432	1.50013	0	0
0.73	2.84199	1.35721	-1.1281	0.601394	0.147653	0.949502	0.247893	-0.0995394	-0.204685	1.09168	-0.296301	0	0	-0.306905	-0.0559822	-0.340239	0.177434	-0.159239	0	0	-0.331948	0.0941668	-0.203155	-0.215973	-0.263033	-0.161647	0.793497	0.459466	0	0	-0.0150693	-0.337282	0.105679	0.768386	1.50232	0	0
0.74	2.83484	1.35834	-1.11714	0.600536	0.156057	0.948844	0.259837	-0.0983047	-0.207668	1.05704	-0.286898	0	0	-0.317021	-0.0580008	-0.338072	0.172667	-0.155042	0	0	-0.331633	0.0971434	-0.2068	-0.2118	-0.263627	-0.159026	0.794571	0.460848	0	0	-0.00217203	-0.335842	0.105146	0.773301	1.50484	0	0
0.75	2.83036	1.36054	-1.10914	0.599686	0.164478	0.948047	0.271061	-0.0976864	-0.210055	1.01971	-0.276738	0	0	-0.326347	-0.058951	-0.336279	0.168068	-0.15145	0	0	-0.330685	0.0990378	-0.209938	-0.207875	-0.264456	-0.155872	0.795759	0.462492	0	0	0.0110388	-0.334141	0.105507	0.778059	1.50699	0	0
0.76	2.82654	1.36315	-1.10279	0.599018	0.173001	0.94713	0.281134	-0.0964889	-0.211954	0.979613	-0.264957	0	0	-0.336039	-0.0591573	-0.33346	0.162302	-0.14766	0	0	-0.329306	0.100141	-0.212073	-0.203313	-0.264815	-0.153322	0.796149	0.4631	0	0	0.0239079	-0.332374	0.106231	0.782889	1.50909	0	0
0.77	2.82319	1.36683	-1.09785	0.598505	0.181568	0.946009	0.291174	-0.0953233	-0.213682	0.937631	-0.253435	0	0	-0.344855	-0.0585358	-0.330738	0.156712	-0.144124	0	0	-0.327221	0.100199	-0.21304	-0.199294	-0.265079	-0.150705	0.797059	0.463593	0	0	0.0365099	-0.330984	0.108122	0.788344	1.51082	0	0
0.78	2.82035	1.37158	-1.09408	0.598048	0.190174	0.944678	0.301003	-0.0946657	-0.215872	0.894361	-0.241561	0	0	-0.352733	-0.0570511	-0.32799	0.151379	-0.140331	0	0	-0.324308	0.0994622	-0.213373	-0.195049	-0.264632	-0.149895	0.798061	0.462075	0	0	0.0486697	-0.329517	0.110444	0.794277	1.5125	0	0
0.79	2.81781	1.37727	-1.09121	0.597601	0.198842	0.943203	0.310545	-0.0947705	-0.218653	0.849984	-0.230635	0	0	-0.359744	-0.0547866	-0.325507	0.146374	-0.136411	0	0	-0.320706	0.0981423	-0.212873	-0.191707	-0.264504	-0.149237	0.799949	0.460249	0	0	0.060625	-0.32714	0.112372	0.800333	1.51416	0	0
